# xmcd
#
# Track frame offsets:
# 150
# 25387
# 44762
# 55405
# 94742
# 141129
# 174107
# 200377
# 213984
# 232611
# 251436
# 268078
# 298901
# 315508
#
# Disc length: 4504 seconds
#
# Revision: 1
# Processed by: cddbd v1.4PL0 Copyright (c) Steve Scherf et al.
# Submitted via: CedeCatalogueitor 2.5 http://usuarios.lycos.es/kakasboy
#
DISCID=c811960e
DTITLE=Gary Moore - The Best Of The Blues CD2
DYEAR=2002
DGENRE=
TTITLE0=Caldonia
TTITLE1=You Don't Love Me
TTITLE2=Key To Love
TTITLE3=The Thrill Is Gone
TTITLE4=Stormy Monday
TTITLE5=Cold, Cold Feeling
TTITLE6=Further Up The Road
TTITLE7=The Stumble
TTITLE8=Oh Pretty Woman
TTITLE9=Walking By Myself
TTITLE10=Too Tired
TTITLE11=Still Got The Blues
TTITLE12=All Your Love
TTITLE13=Midnight Blues
EXTD=
EXTT0=
EXTT1=
EXTT2=
EXTT3=
EXTT4=
EXTT5=
EXTT6=
EXTT7=
EXTT8=
EXTT9=
EXTT10=
EXTT11=
EXTT12=
EXTT13=
PLAYORDER=
